{"accessors" : [{"bufferView" : 0, "byteOffset" : 0, "componentType" : 5123, "count" : 4956, "type" : "SCALAR", "max" : [4392], "min" : [0]}, {"bufferView" : 1, "byteOffset" : 0, "componentType" : 5126, "count" : 4393, "type" : "VEC3", "max" : [13.641450881958008, 7.66783332824707, 10], "min" : [-11.67969799041748, -4.996976852416992, 0], "name" : "POSITION"}, {"bufferView" : 1, "byteOffset" : 12, "componentType" : 5126, "count" : 4393, "type" : "VEC3", "max" : [1.0000044107437134, 0.9999873638153076, 1.0000044107437134], "min" : [-0.9999873042106628, -1.0000019073486328, -1.0000044107437134], "name" : "NORMAL"}], "asset" : {"generator" : "Aspose.3D 24.1.0", "version" : "2.0"}, "buffers" : [{"uri" : "data:application/octet-stream;base64,", "byteLength" : 128864}], "bufferViews" : [{"buffer" : 0, "byteOffset" : 0, "byteLength" : 9912, "target" : 34963}, {"buffer" : 0, "byteOffset" : 9916, "byteLength" : 118944, "byteStride" : 24, "target" : 34962}], "meshes" : [{"primitives" : [{"attributes" : {"POSITION" : 1, "NORMAL" : 2}, "indices" : 0, "mode" : 4}], "name" : ""}], "nodes" : [{"mesh" : 0, "name" : ""}], "scene" : 0, "scenes" : [{"nodes" : [0]}]}