{"accessors" : [{"bufferView" : 0, "byteOffset" : 0, "componentType" : 5123, "count" : 12492, "type" : "SCALAR", "max" : [10609], "min" : [0]}, {"bufferView" : 1, "byteOffset" : 0, "componentType" : 5126, "count" : 10610, "type" : "VEC3", "max" : [29.013288497924805, 49.87903594970703, 10], "min" : [-28.256555557250977, -17.61574935913086, 0], "name" : "POSITION"}, {"bufferView" : 1, "byteOffset" : 12, "componentType" : 5126, "count" : 10610, "type" : "VEC3", "max" : [0.9998876452445984, 0.9999895691871643, 1.0000044107437134], "min" : [-1.0000015497207642, -0.999768078327179, -1.0000044107437134], "name" : "NORMAL"}], "asset" : {"generator" : "Aspose.3D 24.1.0", "version" : "2.0"}, "buffers" : [{"uri" : "data:application/octet-stream;base64,", "byteLength" : 324800}], "bufferViews" : [{"buffer" : 0, "byteOffset" : 0, "byteLength" : 24984, "target" : 34963}, {"buffer" : 0, "byteOffset" : 24988, "byteLength" : 299808, "byteStride" : 24, "target" : 34962}], "meshes" : [{"primitives" : [{"attributes" : {"POSITION" : 1, "NORMAL" : 2}, "indices" : 0, "mode" : 4}], "name" : ""}], "nodes" : [{"mesh" : 0, "name" : ""}], "scene" : 0, "scenes" : [{"nodes" : [0]}]}