{"accessors" : [{"bufferView" : 0, "byteOffset" : 0, "componentType" : 5123, "count" : 7740, "type" : "SCALAR", "max" : [6775], "min" : [0]}, {"bufferView" : 1, "byteOffset" : 0, "componentType" : 5126, "count" : 6776, "type" : "VEC3", "max" : [12.628460884094238, 9.588112831115723, 10], "min" : [-8.091093063354492, -10.956718444824219, 0], "name" : "POSITION"}, {"bufferView" : 1, "byteOffset" : 12, "componentType" : 5126, "count" : 6776, "type" : "VEC3", "max" : [0.9997527599334717, 0.9997571706771851, 1.0000044107437134], "min" : [-0.9997544884681702, -1.0000044107437134, -1.0000044107437134], "name" : "NORMAL"}], "asset" : {"generator" : "Aspose.3D 24.1.0", "version" : "2.0"}, "buffers" : [{"uri" : "data:application/octet-stream;base64,", "byteLength" : 201248}], "bufferViews" : [{"buffer" : 0, "byteOffset" : 0, "byteLength" : 15480, "target" : 34963}, {"buffer" : 0, "byteOffset" : 15484, "byteLength" : 185760, "byteStride" : 24, "target" : 34962}], "meshes" : [{"primitives" : [{"attributes" : {"POSITION" : 1, "NORMAL" : 2}, "indices" : 0, "mode" : 4}], "name" : ""}], "nodes" : [{"mesh" : 0, "name" : ""}], "scene" : 0, "scenes" : [{"nodes" : [0]}]}